<svg width="28" height="28" viewBox="0 0 28 28" fill="none" xmlns="http://www.w3.org/2000/svg">
<path d="M0 22.75C0 23.2312 0.39375 23.625 0.875 23.625H4.4625C4.86719 25.6211 6.63359 27.125 8.75 27.125C10.8664 27.125 12.6328 25.6211 13.0375 23.625H27.125C27.6062 23.625 28 23.2312 28 22.75C28 22.2688 27.6062 21.875 27.125 21.875H13.0375C12.6328 19.8789 10.8664 18.375 8.75 18.375C6.63359 18.375 4.86719 19.8789 4.4625 21.875H0.875C0.39375 21.875 0 22.2688 0 22.75ZM6.125 22.75C6.125 21.3003 7.30025 20.125 8.75 20.125C10.1997 20.125 11.375 21.3003 11.375 22.75C11.375 24.1997 10.1997 25.375 8.75 25.375C7.30025 25.375 6.125 24.1997 6.125 22.75ZM16.625 14C16.625 12.5503 17.8003 11.375 19.25 11.375C20.6997 11.375 21.875 12.5503 21.875 14C21.875 15.4497 20.6997 16.625 19.25 16.625C17.8003 16.625 16.625 15.4497 16.625 14ZM19.25 9.625C17.1336 9.625 15.3672 11.1289 14.9625 13.125H0.875C0.39375 13.125 0 13.5187 0 14C0 14.4812 0.39375 14.875 0.875 14.875H14.9625C15.3672 16.8711 17.1336 18.375 19.25 18.375C21.3664 18.375 23.1328 16.8711 23.5375 14.875H27.125C27.6062 14.875 28 14.4812 28 14C28 13.5188 27.6062 13.125 27.125 13.125H23.5375C23.1328 11.1289 21.3664 9.625 19.25 9.625ZM10.5 7.875C9.05025 7.875 7.875 6.69975 7.875 5.25C7.875 3.80025 9.05025 2.625 10.5 2.625C11.9497 2.625 13.125 3.80025 13.125 5.25C13.125 6.69975 11.9497 7.875 10.5 7.875ZM14.7875 4.375C14.3828 2.37891 12.6164 0.875 10.5 0.875C8.38359 0.875 6.61719 2.37891 6.2125 4.375H0.875C0.39375 4.375 0 4.76875 0 5.25C0 5.73125 0.39375 6.125 0.875 6.125H6.2125C6.61719 8.12109 8.38359 9.625 10.5 9.625C12.6164 9.625 14.3828 8.12109 14.7875 6.125H27.125C27.6062 6.125 28 5.73125 28 5.25C28 4.76875 27.6062 4.375 27.125 4.375H14.7875Z" fill="black"/>
</svg>
