<svg width="18" height="19" viewBox="0 0 18 19" fill="none" xmlns="http://www.w3.org/2000/svg">
<path d="M9 1.625C11.0886 1.625 13.0916 2.45468 14.5685 3.93153C16.0453 5.40838 16.875 7.41142 16.875 9.5C16.875 11.5886 16.0453 13.5916 14.5685 15.0685C13.0916 16.5453 11.0886 17.375 9 17.375C6.91142 17.375 4.90838 16.5453 3.43153 15.0685C1.95468 13.5916 1.125 11.5886 1.125 9.5C1.125 7.41142 1.95468 5.40838 3.43153 3.93153C4.90838 2.45468 6.91142 1.625 9 1.625ZM9 18.5C11.3869 18.5 13.6761 17.5518 15.364 15.864C17.0518 14.1761 18 11.8869 18 9.5C18 7.11305 17.0518 4.82387 15.364 3.13604C13.6761 1.44821 11.3869 0.5 9 0.5C6.61305 0.5 4.32387 1.44821 2.63604 3.13604C0.948212 4.82387 0 7.11305 0 9.5C0 11.8869 0.948212 14.1761 2.63604 15.864C4.32387 17.5518 6.61305 18.5 9 18.5ZM6.05039 5.19688C5.84648 4.96133 5.49141 4.9332 5.25586 5.13711C5.02031 5.34102 4.99219 5.69609 5.19609 5.93164L8.2582 9.5L5.19961 13.0719C4.9957 13.3074 5.02383 13.6625 5.25938 13.8664C5.49492 14.0703 5.85 14.0422 6.05391 13.8066L9 10.3648L11.9496 13.8031C12.1535 14.0387 12.5051 14.0668 12.7441 13.8629C12.9832 13.659 13.0078 13.3074 12.8039 13.0684L9.7418 9.5L12.8039 5.92812C13.0078 5.69258 12.9797 5.3375 12.7441 5.13359C12.5086 4.92969 12.1535 4.95781 11.9496 5.19336L9 8.63516L6.05039 5.19688Z" fill="#707070"/>
</svg>
