<svg width="18" height="19" viewBox="0 0 18 19" fill="none" xmlns="http://www.w3.org/2000/svg">
<path d="M9 1.625C11.0886 1.625 13.0916 2.45468 14.5685 3.93153C16.0453 5.40838 16.875 7.41142 16.875 9.5C16.875 11.5886 16.0453 13.5916 14.5685 15.0685C13.0916 16.5453 11.0886 17.375 9 17.375C6.91142 17.375 4.90838 16.5453 3.43153 15.0685C1.95468 13.5916 1.125 11.5886 1.125 9.5C1.125 7.41142 1.95468 5.40838 3.43153 3.93153C4.90838 2.45468 6.91142 1.625 9 1.625ZM9 18.5C11.3869 18.5 13.6761 17.5518 15.364 15.864C17.0518 14.1761 18 11.8869 18 9.5C18 7.11305 17.0518 4.82387 15.364 3.13604C13.6761 1.44821 11.3869 0.5 9 0.5C6.61305 0.5 4.32387 1.44821 2.63604 3.13604C0.948212 4.82387 0 7.11305 0 9.5C0 11.8869 0.948212 14.1761 2.63604 15.864C4.32387 17.5518 6.61305 18.5 9 18.5ZM12.7723 7.64727C12.9902 7.4293 12.9902 7.0707 12.7723 6.85273C12.5543 6.63477 12.1957 6.63477 11.9777 6.85273L7.875 10.9555L6.02227 9.10273C5.8043 8.88477 5.4457 8.88477 5.22773 9.10273C5.00977 9.3207 5.00977 9.6793 5.22773 9.89727L7.47773 12.1473C7.6957 12.3652 8.0543 12.3652 8.27227 12.1473L12.7723 7.64727Z" fill="#36ADC1"/>
</svg>
