<svg width="40" height="40" viewBox="0 0 40 40" fill="none" xmlns="http://www.w3.org/2000/svg">
<circle cx="20" cy="20" r="20" fill="#F7F7F7"/>
<path d="M25.8059 26.7962C26.0776 27.0679 26.5246 27.0679 26.7962 26.7962C27.0679 26.5246 27.0679 26.0776 26.7962 25.8059L20.9903 20L26.7962 14.1941C27.0679 13.9224 27.0679 13.4754 26.7962 13.2038C26.5246 12.9321 26.0776 12.9321 25.8059 13.2038L20 19.0097L14.1984 13.2038C13.9268 12.9321 13.4798 12.9321 13.2081 13.2038C12.9365 13.4754 12.9365 13.9224 13.2081 14.1941L19.0097 20L13.2038 25.8059C12.9321 26.0776 12.9321 26.5246 13.2038 26.7962C13.4754 27.0679 13.9224 27.0679 14.1941 26.7962L20 20.9903L25.8059 26.7962Z" fill="#32324C"/>
</svg>
