<svg width="11" height="10" viewBox="0 0 11 10" fill="none" xmlns="http://www.w3.org/2000/svg">
<path d="M5.04381 4.24562L9.13091 0.15695C9.34085 -0.0523167 9.68032 -0.0523167 9.87016 0.15695C10.098 0.36622 10.098 0.705694 9.87016 0.914961L5.80093 5.00274L9.87016 9.08984C10.098 9.29978 10.098 9.63925 9.87016 9.82909C9.68032 10.0569 9.34085 10.0569 9.13091 9.82909L5.04381 5.75986L0.956035 9.82909C0.746767 10.0569 0.407291 10.0569 0.198001 9.82909C-0.0113127 9.63925 -0.0113127 9.29978 0.198001 9.08984L4.28669 5.00274L0.198001 0.914961C-0.0113127 0.705694 -0.0113127 0.36622 0.198001 0.15695C0.407291 -0.0523167 0.746767 -0.0523167 0.956035 0.15695L5.04381 4.24562Z" fill="#292929"/>
</svg>
